<svg width="500" height="500" viewBox="0 0 500 500" fill="none" xmlns="http://www.w3.org/2000/svg">
<g clip-path="url(#clip0_2666_5632)">
<path d="M443.082 319.494L429.611 275.705C428.856 273.234 427.917 270.837 426.779 268.518C425.646 266.2 424.334 263.981 422.845 261.872C421.355 259.763 419.708 257.786 417.898 255.945C416.094 254.098 414.153 252.409 412.075 250.872C409.998 249.34 407.811 247.982 405.519 246.796C403.221 245.616 400.845 244.619 398.39 243.817C395.94 243.014 393.438 242.411 390.883 242.012C388.334 241.609 385.769 241.414 383.183 241.425H117.156C114.57 241.414 112.005 241.609 109.455 242.012C106.901 242.416 104.398 243.014 101.944 243.822C99.4887 244.625 97.1124 245.616 94.8201 246.802C92.5226 247.982 90.3352 249.34 88.258 250.877C86.1807 252.409 84.2399 254.103 82.4354 255.945C80.6257 257.791 78.9786 259.769 77.4889 261.877C75.9992 263.991 74.6878 266.205 73.5495 268.523C72.4165 270.842 71.4723 273.239 70.7221 275.71L63.5987 298.885C63.3364 299.745 63.1423 300.626 63.0269 301.523C62.9063 302.42 62.8643 303.322 62.8958 304.225C62.9325 305.127 63.0374 306.024 63.221 306.91C63.4046 307.797 63.6617 308.657 63.9869 309.502C64.3173 310.346 64.7108 311.154 65.1724 311.93C65.6392 312.707 66.1638 313.441 66.746 314.128C67.3335 314.821 67.9735 315.455 68.6659 316.037C69.3583 316.62 70.0927 317.139 70.8743 317.595L308.287 457.253C309.074 457.714 309.892 458.113 310.747 458.433C311.602 458.758 312.478 459.01 313.375 459.188C314.272 459.361 315.175 459.461 316.093 459.487C317.005 459.508 317.913 459.456 318.82 459.319C319.723 459.188 320.609 458.984 321.48 458.7C322.351 458.422 323.19 458.066 323.998 457.646C324.805 457.221 325.577 456.733 326.3 456.177C327.03 455.621 327.706 455.013 328.325 454.341L439.436 335.299C440.407 334.255 441.225 333.106 441.896 331.848C442.563 330.594 443.056 329.272 443.376 327.882C443.696 326.497 443.832 325.091 443.78 323.67C443.732 322.248 443.496 320.853 443.082 319.494Z" fill="#4CDBC4"/>
<path d="M150.811 327.058L87.2932 289.689C86.7687 289.38 86.2284 289.102 85.6724 288.855C85.1163 288.603 84.5446 288.388 83.9676 288.205C83.3853 288.021 82.7978 287.874 82.1998 287.754C81.6018 287.638 80.9986 287.554 80.3901 287.507C79.7816 287.455 79.1731 287.439 78.5647 287.46C77.9562 287.481 77.3529 287.533 76.7497 287.623C76.1465 287.712 75.5485 287.832 74.961 287.984C74.3682 288.142 73.7912 288.331 73.2247 288.551C72.6582 288.771 72.1022 289.023 71.5619 289.306C71.0216 289.59 70.5023 289.899 69.9987 290.24C69.4951 290.586 69.0073 290.953 68.5457 291.347C68.0841 291.746 67.6435 292.165 67.2291 292.611C66.8147 293.057 66.4265 293.529 66.0645 294.017C65.7026 294.505 65.3669 295.013 65.0626 295.543C64.7584 296.073 64.4856 296.613 64.2443 297.175C63.9978 297.731 63.788 298.302 63.6096 298.885L31.5174 403.176C31.2709 403.979 31.0873 404.792 30.9667 405.621C30.846 406.45 30.7936 407.284 30.804 408.123C30.8145 408.962 30.888 409.796 31.0244 410.62C31.166 411.449 31.3653 412.257 31.6328 413.054C31.8951 413.846 32.2203 414.617 32.6033 415.362C32.9862 416.107 33.4268 416.82 33.9251 417.497C34.4182 418.173 34.9638 418.808 35.5565 419.396C36.1492 419.988 36.784 420.534 37.4606 421.027C38.1373 421.52 38.8507 421.956 39.5956 422.338C40.3404 422.721 41.1115 423.047 41.9088 423.309C42.7009 423.571 43.514 423.77 44.3428 423.907C45.1663 424.048 46.0004 424.117 46.8396 424.127C47.6737 424.132 48.5077 424.08 49.3365 423.954C50.1653 423.833 50.9836 423.65 51.7809 423.403C52.5835 423.151 53.3599 422.847 54.11 422.475C54.8653 422.108 55.584 421.683 56.2711 421.2L151.876 354.278C152.432 353.889 152.957 353.47 153.455 353.019C153.959 352.568 154.426 352.085 154.866 351.571C155.307 351.057 155.716 350.522 156.088 349.96C156.461 349.394 156.797 348.812 157.096 348.208C157.395 347.605 157.657 346.981 157.882 346.346C158.103 345.706 158.286 345.056 158.423 344.4C158.564 343.739 158.664 343.073 158.722 342.396C158.779 341.725 158.795 341.054 158.769 340.377C158.743 339.705 158.675 339.034 158.564 338.368C158.454 337.702 158.302 337.046 158.113 336.396C157.919 335.75 157.688 335.116 157.416 334.497C157.143 333.883 156.833 333.28 156.487 332.703C156.141 332.126 155.763 331.57 155.344 331.035C154.929 330.505 154.483 330.001 154.006 329.524C153.523 329.047 153.02 328.606 152.485 328.192C151.95 327.777 151.388 327.399 150.811 327.058Z" fill="#54C0EB"/>
<mask id="mask0_2666_5632" style="mask-type:luminance" maskUnits="userSpaceOnUse" x="261" y="306" width="222" height="195">
<path d="M261.058 306.79H482.629V500.497H261.058V306.79Z" fill="white"/>
</mask>
<g mask="url(#mask0_2666_5632)">
<path d="M479.424 437.624L443.072 319.495C442.868 318.818 442.616 318.157 442.322 317.517C442.028 316.872 441.693 316.253 441.315 315.655C440.943 315.057 440.528 314.48 440.077 313.94C439.631 313.394 439.143 312.88 438.629 312.397C438.11 311.915 437.564 311.469 436.987 311.06C436.41 310.651 435.812 310.278 435.188 309.948C434.564 309.617 433.919 309.329 433.258 309.082C432.597 308.836 431.92 308.631 431.233 308.474C430.546 308.316 429.848 308.201 429.145 308.133C428.442 308.065 427.734 308.044 427.031 308.07C426.323 308.096 425.62 308.169 424.923 308.285C424.225 308.4 423.543 308.563 422.866 308.767C422.19 308.977 421.529 309.229 420.889 309.518C420.244 309.811 419.625 310.147 419.021 310.519C418.423 310.897 417.852 311.306 417.306 311.757C416.761 312.208 416.247 312.691 415.764 313.21L266.402 473.246C265.327 474.401 264.435 475.68 263.738 477.097C263.035 478.508 262.552 479.992 262.285 481.545C262.017 483.098 261.975 484.661 262.164 486.224C262.353 487.792 262.762 489.298 263.392 490.746C264.021 492.188 264.839 493.515 265.857 494.722C266.875 495.928 268.039 496.962 269.361 497.827C270.678 498.693 272.094 499.354 273.605 499.805C275.115 500.256 276.658 500.481 278.236 500.481H433.001C433.945 500.481 434.894 500.455 435.839 500.397C436.783 500.345 437.722 500.261 438.661 500.151C439.605 500.041 440.539 499.904 441.472 499.736C442.401 499.574 443.329 499.38 444.247 499.159C445.17 498.944 446.083 498.698 446.985 498.425C447.893 498.152 448.79 497.853 449.682 497.528C450.568 497.203 451.444 496.851 452.315 496.479C453.18 496.101 454.041 495.697 454.885 495.272C455.73 494.848 456.558 494.396 457.377 493.924C458.195 493.447 458.998 492.949 459.79 492.429C460.577 491.905 461.353 491.359 462.108 490.793C462.869 490.226 463.608 489.639 464.327 489.03C465.051 488.417 465.759 487.787 466.441 487.137C467.128 486.486 467.794 485.815 468.445 485.122C469.09 484.435 469.714 483.722 470.323 482.998C470.926 482.269 471.513 481.524 472.075 480.763C472.636 480.003 473.176 479.226 473.69 478.434C474.21 477.642 474.703 476.834 475.17 476.016C475.642 475.193 476.082 474.359 476.507 473.509C476.927 472.664 477.32 471.804 477.693 470.933C478.065 470.062 478.406 469.181 478.726 468.295C479.046 467.403 479.34 466.501 479.607 465.593C479.87 464.686 480.111 463.773 480.326 462.85C480.536 461.927 480.725 461.003 480.882 460.07C481.039 459.136 481.176 458.197 481.275 457.258C481.38 456.319 481.459 455.375 481.506 454.431C481.559 453.487 481.58 452.542 481.574 451.593C481.564 450.649 481.532 449.705 481.47 448.76C481.412 447.816 481.323 446.872 481.202 445.933C481.087 444.994 480.945 444.06 480.772 443.132C480.604 442.203 480.405 441.275 480.179 440.357C479.954 439.439 479.702 438.526 479.424 437.624Z" fill="#54C0EB"/>
</g>
<mask id="mask1_2666_5632" style="mask-type:luminance" maskUnits="userSpaceOnUse" x="18" y="324" width="316" height="177">
<path d="M18 324.247H333.572V500.497H18V324.247Z" fill="white"/>
</mask>
<g mask="url(#mask1_2666_5632)">
<path d="M324.697 429.346L150.802 327.058C149.464 326.271 148.043 325.689 146.537 325.311C145.037 324.934 143.505 324.776 141.958 324.834C140.405 324.897 138.894 325.175 137.426 325.668C135.957 326.166 134.588 326.859 133.313 327.745L37.708 394.668C36.234 395.701 34.9646 396.95 33.905 398.408C32.8454 399.861 32.0481 401.456 31.5183 403.176L20.9171 437.613C20.6391 438.521 20.3873 439.428 20.1617 440.351C19.9362 441.269 19.7368 442.193 19.569 443.126C19.3959 444.055 19.2542 444.988 19.1388 445.927C19.0182 446.866 18.929 447.81 18.8713 448.755C18.8084 449.699 18.7717 450.643 18.7664 451.587C18.7612 452.537 18.7821 453.481 18.8346 454.425C18.8818 455.369 18.9552 456.314 19.0602 457.252C19.1651 458.191 19.2962 459.13 19.4588 460.064C19.6162 460.998 19.7998 461.921 20.0148 462.844C20.2247 463.767 20.466 464.68 20.7335 465.588C21.001 466.495 21.2948 467.397 21.6095 468.289C21.9295 469.181 22.2757 470.057 22.6481 470.928C23.0153 471.798 23.414 472.659 23.8336 473.508C24.2532 474.353 24.6991 475.187 25.166 476.01C25.6381 476.834 26.1311 477.637 26.6452 478.429C27.1645 479.226 27.7048 480.002 28.2661 480.763C28.8273 481.524 29.4096 482.268 30.0181 482.992C30.6213 483.721 31.2508 484.43 31.896 485.122C32.5412 485.809 33.2074 486.481 33.8945 487.131C34.5817 487.787 35.2846 488.416 36.0085 489.025C36.7324 489.638 37.472 490.226 38.2326 490.792C38.988 491.359 39.759 491.904 40.5511 492.424C41.338 492.948 42.1405 493.447 42.9588 493.919C43.7824 494.396 44.6112 494.847 45.4557 495.272C46.3002 495.697 47.1553 496.101 48.026 496.479C48.8915 496.851 49.7728 497.202 50.6593 497.528C51.551 497.853 52.448 498.152 53.3502 498.425C54.2577 498.697 55.1704 498.944 56.0937 499.159C57.0116 499.379 57.9401 499.573 58.8685 499.736C59.8022 499.904 60.736 500.04 61.6802 500.15C62.6191 500.261 63.5581 500.345 64.5023 500.397C65.4464 500.455 66.3959 500.481 67.3401 500.481H278.237C280.482 500.481 282.633 500.035 284.689 499.138C286.745 498.246 288.544 496.977 290.071 495.335L328.327 454.341C328.741 453.901 329.129 453.439 329.491 452.951C329.848 452.469 330.183 451.965 330.488 451.44C330.792 450.921 331.065 450.381 331.311 449.83C331.553 449.274 331.768 448.713 331.946 448.136C332.124 447.559 332.276 446.971 332.392 446.378C332.507 445.786 332.586 445.188 332.633 444.584C332.686 443.981 332.696 443.378 332.68 442.775C332.659 442.172 332.607 441.568 332.518 440.97C332.434 440.372 332.313 439.785 332.161 439.197C332.004 438.615 331.82 438.038 331.605 437.477C331.385 436.91 331.138 436.359 330.86 435.824C330.577 435.289 330.273 434.77 329.932 434.267C329.596 433.768 329.234 433.286 328.841 432.824C328.447 432.362 328.033 431.927 327.592 431.513C327.152 431.098 326.69 430.71 326.207 430.348C325.725 429.986 325.221 429.65 324.702 429.346H324.697Z" fill="#4CDBC4"/>
</g>
<mask id="mask2_2666_5632" style="mask-type:luminance" maskUnits="userSpaceOnUse" x="18" y="278" width="429" height="223">
<path d="M18 278.59H446.372V500.497H18V278.59Z" fill="white"/>
</mask>
<g mask="url(#mask2_2666_5632)">
<path d="M445.757 328.37L285.144 500.481H240.94L290.809 447.05L143.31 360.268L18.7969 447.375C19.1116 444.05 19.8145 440.813 20.9056 437.661L33.2064 397.831L112.708 342.134L59.9219 311.044L69.6366 279.308L313.475 422.763L432.644 295.176C433.284 294.395 434.039 293.749 434.91 293.235L445.757 328.37Z" fill="#F6F4E6"/>
</g>
<path d="M351.965 41.3804C348.497 37.9611 344.874 34.7311 341.083 31.6902C337.299 28.6427 333.366 25.7978 329.285 23.1489C325.211 20.5 321.016 18.0673 316.692 15.8509C312.369 13.6277 307.945 11.6343 303.426 9.86384C298.901 8.0934 294.302 6.55948 289.622 5.2553C284.941 3.95112 280.214 2.89021 275.426 2.0658C270.645 1.24816 265.83 0.667023 260.982 0.33591C256.14 0.00479821 251.291 -0.0830484 246.443 0.0791292C244.126 0.166975 241.816 0.302124 239.513 0.498088C237.204 0.694054 234.907 0.944077 232.611 1.24816C230.321 1.54548 228.032 1.90363 225.756 2.31583C223.48 2.72803 221.21 3.19429 218.954 3.71461C216.698 4.23493 214.456 4.80931 212.227 5.43099C210.005 6.05943 207.789 6.73517 205.594 7.47172C203.399 8.20152 201.217 8.97862 199.062 9.81654C196.9 10.6477 194.759 11.5329 192.644 12.4722C190.523 13.4047 188.429 14.3913 186.362 15.4252C184.287 16.4591 182.24 17.547 180.22 18.6755C178.2 19.8107 176.207 20.9865 174.24 22.2164C172.281 23.4395 170.341 24.7166 168.435 26.0343C166.536 27.352 164.658 28.717 162.819 30.1225C160.981 31.5281 159.176 32.9809 157.398 34.4743C155.627 35.9677 153.89 37.5016 152.193 39.0761C150.489 40.6506 148.833 42.2656 147.21 43.9211C145.58 45.5767 143.998 47.2661 142.455 48.9959C140.913 50.7258 139.405 52.4895 137.944 54.2937C136.482 56.0912 135.068 57.9292 133.694 59.7943C132.321 61.6661 130.987 63.5649 129.701 65.4908C128.422 67.4234 127.183 69.383 125.991 71.3765C124.792 73.3631 123.647 75.3836 122.55 77.4243C121.452 79.4718 120.408 81.5396 119.405 83.6344C118.408 85.7292 117.459 87.8442 116.556 89.9863C115.654 92.1217 114.805 94.284 114.004 96.4599C113.209 98.6426 112.462 100.839 111.768 103.055C111.068 105.272 110.428 107.502 109.836 109.745C109.25 111.988 108.711 114.245 108.226 116.516C107.748 118.786 107.317 121.07 106.94 123.361C106.563 125.652 106.24 127.949 105.97 130.26C105.708 132.565 105.492 134.876 105.331 137.194C105.176 139.511 105.068 141.829 105.021 144.147C104.886 152.067 105.405 159.939 106.57 167.764C107.735 175.596 109.539 183.279 111.97 190.807C114.401 198.341 117.438 205.619 121.068 212.647C124.704 219.674 128.886 226.351 133.62 232.682C136.24 236.622 201.762 328.05 222.705 357.167C223.466 358.228 224.288 359.242 225.17 360.208C226.052 361.174 226.988 362.08 227.978 362.931C228.968 363.789 230.005 364.58 231.089 365.31C232.167 366.04 233.291 366.709 234.449 367.31C235.608 367.905 236.8 368.432 238.025 368.891C239.244 369.351 240.49 369.736 241.763 370.047C243.029 370.358 244.308 370.594 245.601 370.75C246.901 370.912 248.2 370.993 249.5 371C250.806 371.006 252.106 370.932 253.406 370.783C254.699 370.635 255.985 370.412 257.258 370.114C258.524 369.81 259.776 369.439 261.002 368.993C262.227 368.547 263.419 368.026 264.584 367.438C265.749 366.851 266.881 366.195 267.972 365.472C269.056 364.749 270.1 363.965 271.096 363.12C272.093 362.276 273.036 361.377 273.924 360.417C274.82 359.465 275.648 358.458 276.423 357.404C277.217 356.343 363.669 237.73 367.036 233.426C371.683 227.141 375.797 220.533 379.4 213.593C382.996 206.653 386.02 199.47 388.484 192.05C390.942 184.624 392.801 177.055 394.067 169.338C395.326 161.615 395.972 153.844 395.999 146.025C396.013 141.153 395.791 136.302 395.319 131.457C394.848 126.611 394.134 121.8 393.178 117.029C392.222 112.259 391.03 107.542 389.602 102.893C388.174 98.2439 386.518 93.6759 384.632 89.189C382.74 84.702 380.632 80.33 378.309 76.0526C375.979 71.7819 373.447 67.6396 370.706 63.6257C367.959 59.6118 365.023 55.7466 361.891 52.03C358.76 48.3134 355.454 44.7591 351.965 41.3804Z" fill="#F05454"/>
<path d="M351 141C351 144.272 350.848 147.544 350.522 150.806C350.197 154.056 349.719 157.296 349.079 160.514C348.428 163.721 347.635 166.896 346.68 170.028C345.725 173.16 344.618 176.238 343.359 179.272C342.1 182.296 340.689 185.255 339.137 188.138C337.585 191.032 335.892 193.829 334.068 196.562C332.234 199.283 330.28 201.907 328.196 204.434C326.102 206.972 323.898 209.391 321.565 211.713C319.242 214.024 316.8 216.227 314.26 218.3C311.72 220.374 309.072 222.328 306.337 224.143C303.602 225.968 300.78 227.652 297.882 229.197C294.973 230.741 291.999 232.134 288.96 233.387C285.921 234.639 282.828 235.741 279.68 236.691C276.522 237.641 273.331 238.441 270.107 239.078C266.884 239.715 263.628 240.201 260.35 240.514C257.072 240.838 253.794 241 250.505 241C247.206 241 243.928 240.838 240.65 240.514C237.372 240.201 234.116 239.715 230.893 239.078C227.669 238.441 224.478 237.641 221.32 236.691C218.172 235.741 215.079 234.639 212.04 233.387C209.001 232.134 206.027 230.741 203.118 229.197C200.22 227.652 197.398 225.968 194.663 224.143C191.928 222.328 189.29 220.374 186.74 218.3C184.2 216.227 181.758 214.024 179.435 211.713C177.102 209.391 174.898 206.972 172.804 204.434C170.72 201.907 168.766 199.283 166.932 196.562C165.108 193.829 163.415 191.032 161.863 188.138C160.311 185.255 158.9 182.296 157.641 179.272C156.382 176.238 155.275 173.16 154.32 170.028C153.365 166.896 152.572 163.721 151.921 160.514C151.281 157.296 150.803 154.056 150.478 150.806C150.152 147.544 150 144.272 150 141C150 137.728 150.152 134.456 150.478 131.194C150.803 127.944 151.281 124.704 151.921 121.486C152.572 118.279 153.365 115.104 154.32 111.972C155.275 108.84 156.382 105.762 157.641 102.728C158.9 99.7041 160.311 96.7451 161.863 93.8618C163.415 90.9676 165.108 88.1706 166.932 85.4384C168.766 82.7171 170.72 80.0929 172.804 77.5659C174.898 75.0281 177.102 72.6091 179.435 70.2873C181.758 67.9762 184.2 65.7732 186.74 63.6998C189.29 61.6263 191.928 59.6717 194.663 57.8575C197.398 56.0324 200.22 54.3477 203.118 52.8035C206.027 51.2592 209.001 49.8661 212.04 48.6134C215.079 47.3607 218.172 46.2592 221.32 45.3089C224.478 44.3585 227.669 43.5594 230.893 42.9222C234.116 42.2851 237.372 41.7991 240.65 41.486C243.928 41.162 247.206 41 250.505 41C253.794 41 257.072 41.162 260.35 41.486C263.628 41.7991 266.884 42.2851 270.107 42.9222C273.331 43.5594 276.522 44.3585 279.68 45.3089C282.828 46.2592 285.921 47.3607 288.96 48.6134C291.999 49.8661 294.973 51.2592 297.882 52.8035C300.78 54.3477 303.602 56.0324 306.337 57.8575C309.072 59.6717 311.72 61.6263 314.26 63.6998C316.8 65.7732 319.242 67.9762 321.565 70.2873C323.898 72.6091 326.102 75.0281 328.196 77.5659C330.28 80.0929 332.234 82.7171 334.068 85.4384C335.892 88.1706 337.585 90.9676 339.137 93.8618C340.689 96.7451 342.1 99.7041 343.359 102.728C344.618 105.762 345.725 108.84 346.68 111.972C347.635 115.104 348.428 118.279 349.079 121.486C349.719 124.704 350.197 127.944 350.522 131.194C350.848 134.456 351 137.728 351 141Z" fill="#F6F4E6"/>
<path d="M263.441 147.48C264.698 146.565 265.85 145.526 266.897 144.362C267.934 143.199 268.849 141.937 269.632 140.587C270.406 139.228 271.039 137.807 271.522 136.314C272.006 134.822 272.331 133.303 272.499 131.739C272.666 130.185 272.666 128.621 272.507 127.058C272.349 125.504 272.032 123.976 271.558 122.483C271.083 120.991 270.45 119.561 269.676 118.202C268.902 116.842 267.996 115.581 266.958 114.417C265.921 113.245 264.777 112.206 263.52 111.282C262.262 110.358 260.925 109.576 259.51 108.937C258.094 108.297 256.625 107.817 255.104 107.489C253.591 107.16 252.052 107 250.496 107C248.948 107 247.409 107.16 245.896 107.489C244.375 107.817 242.906 108.297 241.49 108.937C240.066 109.576 238.729 110.358 237.48 111.282C236.223 112.206 235.071 113.245 234.033 114.417C233.004 115.581 232.089 116.842 231.316 118.202C230.542 119.561 229.917 120.991 229.442 122.483C228.968 123.976 228.651 125.504 228.484 127.058C228.326 128.621 228.334 130.185 228.501 131.739C228.669 133.303 228.985 134.822 229.478 136.314C229.961 137.807 230.586 139.228 231.368 140.587C232.151 141.937 233.066 143.199 234.103 144.362C235.15 145.526 236.302 146.565 237.559 147.48C235.079 148.688 232.811 150.216 230.762 152.073C228.712 153.929 226.954 156.035 225.485 158.389C224.025 160.734 222.908 163.248 222.143 165.922C221.387 168.595 221 171.323 221 174.094V181.547C221 182.533 221.185 183.484 221.554 184.399C221.932 185.314 222.469 186.122 223.155 186.815C223.849 187.517 224.65 188.058 225.547 188.431C226.452 188.813 227.393 189 228.37 189H272.63C273.607 189 274.548 188.813 275.453 188.431C276.35 188.058 277.151 187.517 277.845 186.815C278.531 186.122 279.068 185.314 279.437 184.399C279.815 183.484 280 182.533 280 181.547V174.094C280 171.323 279.613 168.595 278.848 165.922C278.092 163.248 276.975 160.734 275.506 158.389C274.046 156.035 272.288 153.929 270.238 152.073C268.181 150.216 265.921 148.688 263.441 147.48Z" fill="#F05454"/>
<path d="M224 103.504C223.588 102.812 223.134 102.146 222.645 101.506C222.148 100.858 221.625 100.244 221.076 99.6657C220.519 99.0785 219.928 98.5264 219.31 98.0094C218.693 97.4923 218.059 97.0103 217.39 96.5721C216.721 96.1252 216.027 95.722 215.315 95.3539C214.603 94.9859 213.875 94.6616 213.129 94.3812C212.374 94.092 211.62 93.8553 210.84 93.6538C210.068 93.461 209.288 93.3032 208.499 93.1981C207.71 93.0929 206.913 93.0228 206.116 93.0053C205.318 92.9877 204.521 93.014 203.732 93.0841C202.935 93.163 202.146 93.2769 201.366 93.4347C200.586 93.6012 199.814 93.8028 199.051 94.0481C198.297 94.3023 197.551 94.5915 196.822 94.9245C196.093 95.2575 195.39 95.6256 194.696 96.0375C194.01 96.4494 193.35 96.9051 192.707 97.3871C192.072 97.8779 191.464 98.4037 190.881 98.9559C190.298 99.5167 189.749 100.104 189.226 100.726C188.711 101.34 188.231 101.988 187.777 102.663C187.331 103.338 186.92 104.039 186.551 104.757C186.174 105.476 185.848 106.212 185.556 106.975C185.256 107.728 185.008 108.508 184.802 109.288C184.596 110.077 184.425 110.875 184.305 111.681C184.185 112.487 184.107 113.293 184.073 114.108C184.039 114.923 184.047 115.738 184.099 116.554C184.159 117.36 184.253 118.175 184.399 118.972C184.536 119.779 184.725 120.567 184.948 121.347C185.179 122.127 185.445 122.898 185.754 123.643C186.071 124.397 186.422 125.124 186.808 125.834C187.194 126.553 187.623 127.237 188.086 127.903C188.557 128.56 189.054 129.191 189.586 129.804C190.117 130.409 190.683 130.979 191.283 131.522C191.875 132.065 192.501 132.574 193.152 133.047C190.735 134.239 188.523 135.746 186.525 137.578C184.528 139.401 182.813 141.478 181.381 143.8C179.958 146.122 178.869 148.603 178.123 151.24C177.377 153.87 177.009 156.56 177 159.303V166.656C177 167.629 177.18 168.566 177.549 169.469C177.917 170.363 178.432 171.161 179.109 171.853C179.786 172.536 180.558 173.071 181.441 173.448C182.324 173.816 183.242 174 184.193 174H205.764C205.747 168.707 206.647 163.58 208.456 158.62C210.274 153.668 212.88 149.19 216.292 145.202C215.504 143.493 214.861 141.723 214.346 139.909C213.832 138.086 213.463 136.237 213.232 134.361C213 132.486 212.914 130.602 212.974 128.709C213.034 126.816 213.232 124.949 213.575 123.083C213.918 121.225 214.406 119.41 215.024 117.623C215.649 115.844 216.404 114.117 217.287 112.461C218.17 110.796 219.173 109.218 220.305 107.72C221.428 106.212 222.663 104.81 224 103.504Z" fill="#F05454"/>
<path d="M323 159.303C322.992 156.56 322.631 153.87 321.901 151.24C321.171 148.603 320.106 146.122 318.713 143.8C317.312 141.478 315.634 139.401 313.679 137.578C311.724 135.746 309.56 134.239 307.194 133.047C307.832 132.574 308.444 132.065 309.023 131.522C309.61 130.979 310.164 130.409 310.684 129.804C311.204 129.191 311.691 128.56 312.144 127.903C312.597 127.237 313.016 126.553 313.402 125.834C313.78 125.124 314.124 124.397 314.426 123.643C314.736 122.898 314.996 122.127 315.223 121.347C315.441 120.567 315.626 119.779 315.76 118.972C315.902 118.175 315.995 117.36 316.045 116.554C316.104 115.738 316.112 114.923 316.079 114.108C316.045 113.293 315.97 112.487 315.852 111.681C315.726 110.875 315.567 110.077 315.365 109.288C315.164 108.508 314.912 107.728 314.627 106.975C314.342 106.212 314.015 105.476 313.654 104.757C313.293 104.039 312.891 103.338 312.446 102.663C312.01 101.988 311.54 101.34 311.028 100.726C310.525 100.104 309.988 99.5167 309.417 98.9559C308.847 98.4037 308.251 97.8779 307.622 97.3871C307.001 96.9051 306.355 96.4494 305.676 96.0375C305.004 95.6256 304.316 95.2575 303.603 94.9245C302.89 94.5915 302.16 94.3023 301.414 94.0481C300.675 93.8028 299.92 93.6012 299.157 93.4347C298.393 93.2769 297.622 93.163 296.841 93.0841C296.069 93.014 295.289 92.9877 294.509 93.0053C293.729 93.0228 292.949 93.0929 292.177 93.1981C291.405 93.3032 290.641 93.461 289.878 93.6538C289.123 93.8553 288.376 94.092 287.646 94.3812C286.916 94.6616 286.203 94.9859 285.507 95.3539C284.811 95.722 284.131 96.1252 283.477 96.5721C282.822 97.0103 282.193 97.4923 281.589 98.0094C280.993 98.5264 280.415 99.0785 279.869 99.6657C279.324 100.244 278.812 100.858 278.334 101.506C277.856 102.146 277.411 102.812 277 103.504C278.317 104.81 279.525 106.212 280.624 107.72C281.723 109.218 282.713 110.796 283.577 112.461C284.442 114.117 285.18 115.844 285.792 117.623C286.396 119.41 286.866 121.225 287.21 123.083C287.546 124.949 287.739 126.816 287.797 128.709C287.856 130.602 287.764 132.486 287.546 134.361C287.319 136.237 286.95 138.086 286.455 139.909C285.952 141.723 285.314 143.493 284.551 145.202C287.89 149.19 290.44 153.668 292.21 158.62C293.989 163.58 294.87 168.707 294.853 174H315.961C316.892 174 317.79 173.816 318.654 173.448C319.518 173.071 320.273 172.536 320.936 171.853C321.599 171.161 322.102 170.363 322.463 169.469C322.815 168.566 323 167.629 323 166.656V159.303Z" fill="#F05454"/>
</g>
<defs>
<clipPath id="clip0_2666_5632">
<rect width="500" height="500" fill="white"/>
</clipPath>
</defs>
</svg>
